<svg width="36" height="36" viewBox="0 0 36 36" fill="none" xmlns="http://www.w3.org/2000/svg">
<path d="M20.813 10.6845C20.4249 10.6845 20.1101 10.9995 20.1101 11.3876C20.1101 11.7754 20.4249 12.0905 20.813 12.0905C21.2011 12.0905 21.5158 11.7754 21.5158 11.3876C21.5158 10.9995 21.2011 10.6845 20.813 10.6845Z" fill="#332208"/>
<path d="M16.549 24.4171C16.8234 24.1422 16.8234 23.6973 16.549 23.4223C16.2743 23.1482 15.8294 23.1482 15.5545 23.4223C15.2803 23.6973 15.2803 24.1422 15.5545 24.4171C15.8294 24.6912 16.2743 24.6912 16.549 24.4171Z" fill="#332208"/>
<path d="M8.09911 35.7337C8.37165 36.0856 8.81537 36.0895 9.09148 35.741L12.5005 31.439C13.0797 30.6971 13.2558 29.5987 13.0011 28.6439L13.7344 27.738C14.1292 27.2495 14.649 26.9803 15.1985 26.9803H24.5461C26.2045 26.9803 27.7719 26.1645 28.9601 24.6832C29.009 24.6223 28.589 25.2561 35.3372 14.9246C36.3381 13.4078 36.1884 11.13 35.0031 9.8465C33.8253 8.57495 32.0609 8.75761 31.0573 10.2484L26.9081 15.7112C26.3841 14.8852 25.5852 14.3703 24.7219 14.3703H16.881C15.7653 13.7724 14.5814 13.4697 13.3599 13.4697C9.97506 13.4697 7.01799 15.4715 5.4308 19.2288C4.76234 19.0666 4.05735 19.3256 3.55017 19.9753L0.205166 24.2728C-0.06793 24.6237 -0.0684794 25.1914 0.204067 25.5429L8.09911 35.7337ZM13.3596 15.2709C14.4366 15.2709 15.4779 15.5486 16.4552 16.0962C16.5442 16.1462 16.6401 16.1719 16.7371 16.1719H24.7219C25.4844 16.1719 26.1284 16.9683 26.1284 17.9731C26.1284 18.9666 25.4975 19.7747 24.7219 19.7747H18.985C18.5968 19.7747 18.2819 20.178 18.2819 20.6753C18.2819 21.1729 18.5968 21.5759 18.985 21.5759H24.7219C26.2729 21.5759 27.5345 19.9598 27.5345 17.9731C27.5345 17.8147 27.5257 17.6578 27.5098 17.5022C31.5235 12.2172 32.0895 11.4746 32.1137 11.4376C32.6148 10.6799 33.5044 10.5838 34.0962 11.2229C34.6886 11.8645 34.7636 13.0034 34.2611 13.7653L27.9543 23.4232C27.0334 24.5558 25.8242 25.179 24.5461 25.179H15.1985C14.2825 25.179 13.4154 25.6278 12.7577 26.4418L12.1601 27.1805L6.65148 20.1245C7.93893 17.0306 10.3548 15.2709 13.3596 15.2709V15.2709ZM4.5453 21.2482C4.77718 20.9512 5.13325 20.8977 5.41596 21.1215C5.52338 21.2053 11.5375 28.9282 11.5746 28.9919C11.7804 29.347 11.751 29.8514 11.5101 30.1604L8.60381 33.8279L1.69483 24.9102L4.5453 21.2482Z" fill="#332208"/>
<path d="M10.9691 14.9022H27.8447C29.008 14.9022 29.9542 13.9562 29.9542 12.7933C29.9542 11.0215 29.9542 3.38297 29.9542 2.10883C29.9542 0.945924 29.008 0 27.8447 0H10.9691C9.80584 0 8.85962 0.945924 8.85962 2.10883V12.7933C8.85962 13.9562 9.80584 14.9022 10.9691 14.9022ZM28.5478 5.62336H10.266V4.21766H28.5478V5.62336ZM27.8447 13.4964H10.9691C10.5814 13.4964 10.266 13.1809 10.266 12.7933V7.02934H28.5478V12.7933C28.5478 13.1809 28.2324 13.4964 27.8447 13.4964ZM10.9691 1.40598H27.8447C28.2324 1.40598 28.5478 1.72129 28.5478 2.10883V2.81168H10.266V2.10883C10.266 1.72129 10.5814 1.40598 10.9691 1.40598Z" fill="#332208"/>
<path d="M26.4382 10.6845H23.6257C23.2375 10.6845 22.9226 10.9992 22.9226 11.3876C22.9226 11.7757 23.2375 12.0905 23.6257 12.0905H26.4382C26.8267 12.0905 27.1416 11.7757 27.1416 11.3876C27.1416 10.9992 26.8267 10.6845 26.4382 10.6845Z" fill="#332208"/>
</svg>
