<svg width="25" height="25" viewBox="0 0 25 25" fill="none" xmlns="http://www.w3.org/2000/svg">
<path d="M12.5 0C5.60708 0 0 5.60762 0 12.5C0 19.3924 5.60708 25 12.5 25C19.3929 25 25 19.3924 25 12.5C25 5.60762 19.3929 0 12.5 0ZM12.5 23.9583C6.18184 23.9583 1.04165 18.8182 1.04165 12.5C1.04165 6.18184 6.18184 1.04165 12.5 1.04165C18.8182 1.04165 23.9583 6.18184 23.9583 12.5C23.9583 18.8182 18.8182 23.9583 12.5 23.9583Z" fill="#FEFEFE"/>
<path d="M15.4693 12.062L8.17764 7.37451C8.01792 7.27026 7.81143 7.26465 7.64663 7.35518C7.47876 7.44673 7.375 7.62173 7.375 7.81245V17.1874C7.375 17.3782 7.47876 17.5532 7.64663 17.6447C7.72393 17.687 7.8104 17.7083 7.89585 17.7083C7.99351 17.7083 8.09219 17.6808 8.17764 17.6254L15.4693 12.9379C15.6178 12.8423 15.7083 12.677 15.7083 12.5C15.7083 12.3229 15.6178 12.1577 15.4693 12.062ZM8.41665 16.2332V8.76665L14.2242 12.5L8.41665 16.2332Z" fill="#FEFEFE"/>
</svg>
